<svg width="512" height="512" viewBox="0 0 512 512" xmlns="http://www.w3.org/2000/svg" role="img">
<title>Crypto.ssr icon transparent</title>
<defs>
<linearGradient id="bG" x1="0" y1="0" x2="1" y2="1"><stop offset="0" stop-color="#3A8AF0"/><stop offset="1" stop-color="#1450A8"/></linearGradient>
<linearGradient id="sG" x1="0" y1="0" x2="0" y2="1"><stop offset="0" stop-color="#F2F4F7"/><stop offset="0.5" stop-color="#C3C9D2"/><stop offset="1" stop-color="#969DA8"/></linearGradient>
</defs>
<g transform="translate(-371,-129) scale(2.2)">
<path d="M340.15 117.66 A70 70 0 1 0 340.15 232.34" fill="none" stroke="url(#bG)" stroke-width="22" stroke-linecap="round"/>
<g transform="translate(300,176) scale(1.05)">
<path d="M13 -16 C11 -23 4 -26 -2 -25 C-11 -24 -15 -18 -14 -11 C-13 -1 13 -3 14 8 C15 19 7 26 -2 26 C-10 26 -15 21 -15 14" fill="none" stroke="url(#sG)" stroke-width="8" stroke-linecap="round"/>
<circle cx="13" cy="-16" r="3" fill="#EDEFF2"/><circle cx="-15" cy="14" r="3" fill="#EDEFF2"/>
<polygon points="0,-9 9,-4.5 0,0 -9,-4.5" fill="#FFD24A"/>
<polygon points="-9,-4.5 0,0 0,11 -9,6.5" fill="#C8860E"/>
<polygon points="9,-4.5 0,0 0,11 9,6.5" fill="#E5A81C"/>
</g>
</g>
</svg>
